<svg width="84" height="111" viewBox="0 0 84 111" fill="none" xmlns="http://www.w3.org/2000/svg">
<path d="M37.7238 108.477C32.0987 100.314 27.2958 93.4657 23.1999 87.6254C15.8262 77.111 10.7443 69.8646 7.28317 64.1041C4.59763 59.6345 2.90673 56.0886 1.88392 52.6316C0.862241 49.1784 0.5 45.7895 0.5 41.625C0.5 18.9118 18.8952 0.5 41.5859 0.5C64.2767 0.5 82.6718 18.9118 82.6718 41.625C82.6718 45.7895 82.3096 49.1784 81.2879 52.6316C80.2651 56.0886 78.5742 59.6345 75.8887 64.1041C72.4275 69.8646 67.3456 77.111 59.9719 87.6254C55.8761 93.4657 51.0731 100.314 45.448 108.477C43.5816 111.175 39.59 111.174 37.7238 108.477Z" fill="url(#paint0_radial_121_28)" stroke="#F6C5A3"/>
<path d="M37.7238 108.477C32.0987 100.314 27.2958 93.4657 23.1999 87.6254C15.8262 77.111 10.7443 69.8646 7.28317 64.1041C4.59763 59.6345 2.90673 56.0886 1.88392 52.6316C0.862241 49.1784 0.5 45.7895 0.5 41.625C0.5 18.9118 18.8952 0.5 41.5859 0.5C64.2767 0.5 82.6718 18.9118 82.6718 41.625C82.6718 45.7895 82.3096 49.1784 81.2879 52.6316C80.2651 56.0886 78.5742 59.6345 75.8887 64.1041C72.4275 69.8646 67.3456 77.111 59.9719 87.6254C55.8761 93.4657 51.0731 100.314 45.448 108.477C43.5816 111.175 39.59 111.174 37.7238 108.477Z" fill="url(#paint1_radial_121_28)" stroke="#F6C5A3"/>
<path fill-rule="evenodd" clip-rule="evenodd" d="M42.4982 32.7954C42.1705 32.7417 45.0463 31.8124 47.9548 31.6104C50.7675 31.4149 56.6832 32.932 54.1264 36.4474C53.4225 37.4152 50.9786 37.9353 50.9786 37.9353C52.0822 34.6851 48.0747 33.358 45.745 33.0311C44.46 32.8506 43.2341 32.9162 42.4982 32.7954Z" fill="#2B2A29"/>
<path fill-rule="evenodd" clip-rule="evenodd" d="M26.1025 36.6774C26.1006 36.5428 26.6359 37.115 29.0959 36.6928C29.9819 36.5408 32.1574 35.8253 33.46 35.1893C34.9056 34.4833 39.1844 32.1819 40.9112 31.4504C48.247 28.343 54.7921 29.9537 55.8872 33.1405C57.246 37.0963 52.7848 38.1251 51.8492 38.1702C50.8049 38.2201 55.7443 37.5847 55.4114 34.1022C55.1598 31.4702 51.4065 30.6991 47.5831 31.0658C44.689 31.3433 41.7549 32.424 40.2689 32.9797C36.6934 34.3171 33.9339 36.4603 30.0862 37.1309C27.9611 37.5011 26.1063 36.9661 26.1025 36.6774Z" fill="#F6C5A3"/>
<path fill-rule="evenodd" clip-rule="evenodd" d="M29.2018 30.1224C28.6599 30.1629 25.0402 31.7721 24.9411 33.6439C24.8422 35.516 25.5928 36.8464 34.7703 33.4684C37.1285 32.6004 38.8861 31.375 38.5689 31.4168C37.6874 31.5329 31.5138 32.8361 30.6886 33.0066C29.5785 33.2358 28.6947 32.9423 29.8053 32.1875C30.9159 31.4328 30.1831 30.049 29.2018 30.1224Z" fill="#2B2A29" stroke="#2B2A29" stroke-width="1.88976" stroke-miterlimit="22.9256"/>
<path fill-rule="evenodd" clip-rule="evenodd" d="M31.6689 28.1033C31.4853 28.2089 31.8561 29.9725 31.5009 30.7474C31.1458 31.5221 31.7264 31.1454 34.1482 30.7487C37.0827 30.2678 42.0274 29.0128 46.7326 28.6267C52.6034 28.1449 56.2494 30.3353 55.937 30.0665C53.9061 28.3174 50.702 27.568 47.6644 27.4413C41.3331 27.1775 31.9084 27.9658 31.6689 28.1033Z" fill="#2B2A29" stroke="#2B2A29" stroke-width="1.88976" stroke-miterlimit="22.9256"/>
<path fill-rule="evenodd" clip-rule="evenodd" d="M31.4416 26.6032C31.4768 26.6864 49.2342 26.1933 50.6414 25.71C52.0487 25.2266 51.0901 17.0706 52.7579 14.0925C54.9209 10.2296 30.5932 12.9137 29.9127 14.0061C29.3676 14.8811 31.4416 26.6032 31.4416 26.6032Z" fill="#2B2A29" stroke="#2B2A29" stroke-width="1.88976" stroke-miterlimit="22.9256"/>
<path d="M41.2556 35.3062C46.3579 35.3086 50.7398 37.1386 54.4013 40.7957C58.0788 44.4528 59.9165 48.9099 59.9137 54.1662C59.911 59.3742 58.0934 63.7807 54.461 67.3857C50.8448 70.9907 46.4529 72.7919 41.2851 72.7892C35.8719 72.7865 31.3758 70.9322 27.7961 67.2266C24.2165 63.521 22.4282 59.1208 22.4307 54.026C22.4325 50.6132 23.2681 47.4758 24.9379 44.614C26.6074 41.7521 28.8981 39.4888 31.81 37.8244C34.7382 36.1439 37.8868 35.3044 41.2556 35.3062ZM41.1786 41.9536C37.8423 41.9519 35.0372 43.0988 32.7626 45.3944C30.4883 47.6897 29.3502 50.6087 29.3484 54.1507C29.3464 58.0972 30.7757 61.2195 33.6365 63.5176C35.8594 65.3141 38.4103 66.213 41.2885 66.2145C44.543 66.2161 47.3156 65.053 49.6063 62.7251C51.897 60.3973 53.0433 57.5269 53.0451 54.1143C53.0469 50.7179 51.8954 47.8464 49.5906 45.5C47.2861 43.1374 44.4819 41.9552 41.1786 41.9536Z" fill="#2B2A29"/>
<path d="M41.1829 56.4721C42.2477 56.4725 43.1114 55.6048 43.112 54.5338C43.1125 53.463 42.2497 52.5944 41.1848 52.5938C40.1202 52.5933 39.2563 53.461 39.2559 54.5318C39.2552 55.6028 40.1182 56.4714 41.1829 56.4721Z" fill="#2B2A29" stroke="#2B2A29" stroke-width="0.514351" stroke-miterlimit="22.9256"/>
<path d="M55.0254 42.2767C54.9713 42.2115 54.9192 42.1583 54.8555 42.1025C54.8551 42.102 54.8528 42.1001 54.852 42.0995C54.8131 42.0325 54.7685 41.971 54.7177 41.9127C53.3116 40.349 51.6342 39.2429 49.7613 38.3252C47.61 37.3715 45.8391 36.9749 43.4867 36.8903C41.1882 36.8807 39.4491 37.2057 37.3158 38.0725C35.3425 38.94 33.9608 39.8795 32.442 41.4187C31.0224 42.9488 30.1417 44.3226 29.4128 46.2859C29.1474 47.1261 28.1176 51.5023 29.3817 51.9795C29.8133 51.8913 31.6052 48.4666 32.1485 47.719C33.0998 46.4785 33.9761 45.6367 35.2703 44.7621C36.5142 43.9686 37.5683 43.5171 39.0037 43.1855C40.4388 42.9027 41.5604 42.8825 43.0036 43.1174C44.3834 43.3849 45.3923 43.7697 46.5832 44.5171C47.7493 45.3008 48.2633 45.8247 49.1349 46.8704C49.1633 46.9031 49.1948 46.9303 49.2276 46.9584C49.2278 46.9588 49.2287 46.9603 49.229 46.9605C49.2534 46.9996 49.2766 47.0364 49.3056 47.0724C50.1893 48.1008 50.6238 48.702 51.2055 49.9816C51.7505 51.2855 51.9699 52.3541 52.0163 53.7717C52.0211 55.2485 51.8268 56.3645 51.3267 57.7525C50.7785 59.1342 50.1737 60.1139 49.2037 61.2326C48.1468 62.3875 47.1874 63.1313 45.8262 63.8873C45.0107 64.313 41.3829 65.5675 41.2295 65.9847C41.4992 67.3207 45.9385 66.9749 46.8015 66.8409C48.8339 66.4198 50.3158 65.7541 52.0323 64.5763C53.7731 63.3014 54.9087 62.0669 56.0636 60.2339C57.2434 58.2407 57.8323 56.5543 58.1809 54.2598C58.4648 51.8987 58.353 50.0703 57.7555 47.7745C57.151 45.7662 56.3323 43.9211 55.0254 42.2767Z" fill="#F6C5A3"/>
<path fill-rule="evenodd" clip-rule="evenodd" d="M51.0126 47.2896L47.7891 50.6324L44.5656 53.9752L43.6416 52.7027L42.7178 51.4299L46.8653 49.3598L51.0126 47.2896Z" fill="#2B2A29" stroke="#2B2A29" stroke-width="0.755906" stroke-miterlimit="22.9256"/>
<defs>
<radialGradient id="paint0_radial_121_28" cx="0" cy="0" r="1" gradientUnits="userSpaceOnUse" gradientTransform="translate(41.5859 55.5) rotate(90) scale(55.5 41.5859)">
<stop offset="0.385" stop-color="#FF6600"/>
<stop offset="1" stop-color="#FFA800"/>
<stop offset="1" stop-color="#FFA800"/>
</radialGradient>
<radialGradient id="paint1_radial_121_28" cx="0" cy="0" r="1" gradientUnits="userSpaceOnUse" gradientTransform="translate(41.5859 55.5) rotate(90) scale(55.5 41.5859)">
<stop offset="0.385" stop-color="#FF6600"/>
<stop offset="1" stop-color="#FFA800"/>
<stop offset="1" stop-color="#FFA800"/>
</radialGradient>
</defs>
</svg>
