<svg width="55" height="74" viewBox="0 0 55 74" fill="none" xmlns="http://www.w3.org/2000/svg">
<path d="M24.6738 71.9213C3.86289 41.7233 0 38.6241 0 27.5258C0 12.3237 12.3121 0 27.5 0C42.6879 0 55 12.3237 55 27.5258C55 38.6241 51.1371 41.7233 30.3262 71.9213C28.9605 73.896 26.0393 73.8958 24.6738 71.9213Z" fill="#FF6600"/>
<path d="M38.1042 22.364L36.4424 17.3787C36.2013 16.6528 35.7376 16.0214 35.1172 15.5742C34.4968 15.1269 33.7512 14.8865 32.9864 14.8872H21.9103C21.1454 14.8865 20.3999 15.1269 19.7794 15.5742C19.159 16.0214 18.6954 16.6528 18.4543 17.3787L16.7925 22.364C16.3506 22.5489 15.9732 22.8603 15.7078 23.2591C15.4424 23.6579 15.3008 24.1262 15.3008 24.6053V30.679C15.3008 31.5755 15.7915 32.3505 16.5155 32.7721V35.5381C16.5155 35.8602 16.6435 36.1692 16.8713 36.397C17.0991 36.6248 17.4081 36.7528 17.7303 36.7528H18.945C19.2672 36.7528 19.5762 36.6248 19.804 36.397C20.0318 36.1692 20.1598 35.8602 20.1598 35.5381V33.1085H34.7369V35.5381C34.7369 35.8602 34.8649 36.1692 35.0927 36.397C35.3205 36.6248 35.6295 36.7528 35.9516 36.7528H37.1664C37.4886 36.7528 37.7975 36.6248 38.0253 36.397C38.2532 36.1692 38.3811 35.8602 38.3811 35.5381V32.7721C38.7497 32.5607 39.056 32.2559 39.2693 31.8885C39.4825 31.521 39.5952 31.1039 39.5959 30.679V24.6053C39.5959 24.1262 39.4543 23.6579 39.1889 23.2591C38.9235 22.8603 38.5461 22.5489 38.1042 22.364ZM21.9103 17.3167H32.9852C33.5088 17.3167 33.9728 17.6496 34.138 18.1476L35.4815 22.1757H19.4152L20.7575 18.1476C20.8381 17.9056 20.9928 17.6951 21.1997 17.546C21.4066 17.3969 21.6552 17.3167 21.9103 17.3167ZM19.5524 29.4643C19.3131 29.4642 19.0761 29.417 18.8549 29.3253C18.6338 29.2336 18.4329 29.0993 18.2637 28.93C18.0945 28.7607 17.9603 28.5597 17.8688 28.3385C17.7773 28.1173 17.7302 27.8803 17.7303 27.6409C17.7304 27.4016 17.7776 27.1646 17.8693 26.9434C17.9609 26.7223 18.0953 26.5214 18.2646 26.3522C18.4339 26.183 18.6349 26.0488 18.8561 25.9573C19.0772 25.8658 19.3143 25.8187 19.5536 25.8188C20.0371 25.819 20.5006 26.0111 20.8423 26.3531C21.1841 26.695 21.3759 27.1587 21.3758 27.6421C21.3756 28.1256 21.1834 28.5891 20.8415 28.9308C20.4995 29.2726 20.0358 29.4644 19.5524 29.4643ZM35.3442 29.4643C35.1049 29.4642 34.8679 29.417 34.6468 29.3253C34.4256 29.2336 34.2248 29.0993 34.0556 28.93C33.8864 28.7607 33.7522 28.5597 33.6606 28.3385C33.5691 28.1173 33.522 27.8803 33.5221 27.6409C33.5222 27.4016 33.5694 27.1646 33.6611 26.9434C33.7528 26.7223 33.8871 26.5214 34.0564 26.3522C34.2257 26.183 34.4267 26.0488 34.6479 25.9573C34.8691 25.8658 35.1061 25.8187 35.3455 25.8188C35.8289 25.819 36.2924 26.0111 36.6342 26.3531C36.9759 26.695 37.1678 27.1587 37.1676 27.6421C37.1674 28.1256 36.9752 28.5891 36.6333 28.9308C36.2914 29.2726 35.8277 29.4644 35.3442 29.4643Z" fill="#2D2D2D"/>
</svg>
