<svg width="45" height="45" viewBox="0 0 45 45" fill="none" xmlns="http://www.w3.org/2000/svg">
<path d="M39.375 37.5V11.25C39.375 9.18187 37.6931 7.5 35.625 7.5H31.875V3.75H28.125V7.5H16.875V3.75H13.125V7.5H9.375C7.30687 7.5 5.625 9.18187 5.625 11.25V37.5C5.625 39.5681 7.30687 41.25 9.375 41.25H35.625C37.6931 41.25 39.375 39.5681 39.375 37.5ZM16.875 33.75H13.125V30H16.875V33.75ZM16.875 26.25H13.125V22.5H16.875V26.25ZM24.375 33.75H20.625V30H24.375V33.75ZM24.375 26.25H20.625V22.5H24.375V26.25ZM31.875 33.75H28.125V30H31.875V33.75ZM31.875 26.25H28.125V22.5H31.875V26.25ZM35.625 16.875H9.375V13.125H35.625V16.875Z" fill="#FF6600"/>
</svg>
